<svg id="devices" xmlns="http://www.w3.org/2000/svg" width="103.261" height="80" viewBox="0 0 103.261 80">
  <g id="Group_272" data-name="Group 272" transform="translate(0 0)">
    <g id="Group_271" data-name="Group 271" transform="translate(0 0)">
      <path id="Path_160" data-name="Path 160" d="M86.134,57.669H5.489A5.481,5.481,0,0,0,0,63.268v43.226a5.56,5.56,0,0,0,5.489,5.691H77.742v-22.1a5.11,5.11,0,0,1,5.12-5h9.073V63.268A5.748,5.748,0,0,0,86.134,57.669ZM25.484,77.346H40a2.419,2.419,0,1,1,0,4.839H25.484a2.419,2.419,0,1,1,0-4.839ZM66.129,93.475H25.484a2.419,2.419,0,1,1,0-4.839H66.129a2.419,2.419,0,1,1,0,4.839Z" transform="translate(0 -57.669)" fill="#aab83e"/>
    </g>
  </g>
  <g id="Group_274" data-name="Group 274" transform="translate(22.581 59.355)">
    <g id="Group_273" data-name="Group 273">
      <path id="Path_161" data-name="Path 161" d="M153.574,362.935H143.9V351.967H126.8v10.968h-10a4.839,4.839,0,1,0,0,9.678h36.774a4.839,4.839,0,1,0,0-9.678Z" transform="translate(-111.961 -351.967)" fill="#aab83e"/>
    </g>
  </g>
  <g id="Group_276" data-name="Group 276" transform="translate(82.581 66.129)">
    <g id="Group_275" data-name="Group 275">
      <path id="Path_162" data-name="Path 162" d="M430.1,392.214v-6.659H409.458v6.659c0,.089.193.116.282.116H430.1C430.187,392.329,430.1,392.3,430.1,392.214Z" transform="translate(-409.458 -385.555)" fill="#aab83e"/>
    </g>
  </g>
  <g id="Group_278" data-name="Group 278" transform="translate(82.581 32.258)">
    <g id="Group_277" data-name="Group 277">
      <path id="Path_163" data-name="Path 163" d="M430.1,217.613H409.74c-.089,0-.282.072-.282.161v28.871H430.1V217.774C430.1,217.685,430.187,217.613,430.1,217.613Z" transform="translate(-409.458 -217.613)" fill="#aab83e"/>
    </g>
  </g>
</svg>
