<svg xmlns="http://www.w3.org/2000/svg" width="105.822" height="103.722" viewBox="0 0 105.822 103.722">
  <g id="engineering" transform="translate(-2.022 -3)">
    <path id="Path_190" data-name="Path 190" d="M63.422,61.309a26.719,26.719,0,0,1-1.379,5.157l5.6,5.073a33.756,33.756,0,0,1-2.711,4.732l-7.189-2.318a26.9,26.9,0,0,1-3.789,3.788l2.318,7.189a33.937,33.937,0,0,1-4.732,2.711l-5.073-5.6a26.685,26.685,0,0,1-5.157,1.379l-1.6,7.4c-.9.072-1.81.138-2.733.138s-1.829-.066-2.734-.138l-1.6-7.4a26.719,26.719,0,0,1-5.157-1.379l-5.073,5.6a33.759,33.759,0,0,1-4.732-2.711L20,77.742a26.983,26.983,0,0,1-3.788-3.788L9.025,76.272A33.935,33.935,0,0,1,6.314,71.54l5.6-5.073a26.684,26.684,0,0,1-1.379-5.157l-7.4-1.6C3.066,58.807,3,57.9,3,56.978s.066-1.829.138-2.734l7.4-1.6a26.719,26.719,0,0,1,1.379-5.157l-5.6-5.073a33.759,33.759,0,0,1,2.711-4.732L16.214,40A26.9,26.9,0,0,1,20,36.214l-2.318-7.189a33.937,33.937,0,0,1,4.732-2.711l5.073,5.6a26.684,26.684,0,0,1,5.157-1.379l1.6-7.4c.9-.072,1.81-.138,2.733-.138s1.829.066,2.734.138l1.6,7.4a26.719,26.719,0,0,1,5.157,1.379l5.073-5.6a33.757,33.757,0,0,1,4.732,2.711l-2.318,7.189A26.9,26.9,0,0,1,57.742,40l7.189-2.318a33.935,33.935,0,0,1,2.711,4.732l-5.6,5.073a26.684,26.684,0,0,1,1.379,5.157l7.4,1.6c.072.9.138,1.81.138,2.733s-.066,1.829-.138,2.734ZM36.978,39.095A17.883,17.883,0,1,0,54.861,56.978,17.883,17.883,0,0,0,36.978,39.095Z" transform="translate(0.771 15.766)" fill="#aab83e"/>
    <path id="Path_191" data-name="Path 191" d="M65.368,26.794a14.333,14.333,0,0,1-1.093,2.647L67.1,34.852A19.763,19.763,0,0,1,63.853,38.1l-5.411-2.824A14.09,14.09,0,0,1,55.8,36.366L53.964,42.2a19.433,19.433,0,0,1-2.293.147,19.767,19.767,0,0,1-2.291-.145l-1.831-5.83A14.211,14.211,0,0,1,44.9,35.275L39.491,38.1a19.763,19.763,0,0,1-3.246-3.246l2.824-5.411A14.091,14.091,0,0,1,37.977,26.8l-5.83-1.831A19.434,19.434,0,0,1,32,22.671a19.769,19.769,0,0,1,.145-2.291l5.83-1.831A14.209,14.209,0,0,1,39.067,15.9l-2.824-5.411a19.762,19.762,0,0,1,3.246-3.246L44.9,10.069a14.09,14.09,0,0,1,2.647-1.093l1.831-5.83A19.433,19.433,0,0,1,51.671,3a19.767,19.767,0,0,1,2.291.145l1.831,5.83a14.211,14.211,0,0,1,2.647,1.093l5.411-2.824A19.762,19.762,0,0,1,67.1,10.489L64.274,15.9a14.091,14.091,0,0,1,1.093,2.647l5.83,1.831a19.436,19.436,0,0,1,.147,2.293,19.77,19.77,0,0,1-.145,2.291Zm-13.7-11.275a7.153,7.153,0,1,0,7.153,7.153A7.154,7.154,0,0,0,51.671,15.518Z" transform="translate(23.632)" fill="#aab83e"/>
    <path id="Path_192" data-name="Path 192" d="M71.146,47.441a12.446,12.446,0,0,1-1.161,2.811L71.765,54A16.221,16.221,0,0,1,69,56.765l-3.745-1.779a12.413,12.413,0,0,1-2.811,1.161l-1.391,3.913a14.7,14.7,0,0,1-3.909,0l-1.391-3.913a12.446,12.446,0,0,1-2.811-1.161l-3.745,1.779A16.221,16.221,0,0,1,46.425,54L48.2,50.252a12.433,12.433,0,0,1-1.161-2.809l-3.913-1.391a14.711,14.711,0,0,1,0-3.911l3.913-1.391A12.4,12.4,0,0,1,48.2,37.939l-1.779-3.745a16.22,16.22,0,0,1,2.768-2.768l3.745,1.779a12.413,12.413,0,0,1,2.811-1.161l1.391-3.913A15.666,15.666,0,0,1,59.095,28a16.016,16.016,0,0,1,1.955.131l1.391,3.913A12.446,12.446,0,0,1,65.252,33.2L69,31.425a16.221,16.221,0,0,1,2.768,2.768l-1.779,3.745a12.412,12.412,0,0,1,1.161,2.811l3.913,1.391a14.7,14.7,0,0,1,0,3.909ZM59.095,38.73a5.365,5.365,0,1,0,5.365,5.365A5.365,5.365,0,0,0,59.095,38.73Z" transform="translate(32.304 19.708)" fill="#aab83e"/>
    <path id="Path_193" data-name="Path 193" d="M66.854,5.963l-10.7-2.139L54.019,14.518l3.507.7.964-4.814a26.833,26.833,0,0,1,2.648,11.615,26.538,26.538,0,0,1-5.884,16.765l2.792,2.237a30.425,30.425,0,0,0,3.528-32.47l4.578.916Z" transform="translate(40.99 0.65)" fill="#aab83e"/>
    <path id="Path_194" data-name="Path 194" d="M40.8,13.293l-2.529,2.529,2.43,2.43c-.984-.063-1.969-.118-2.954-.118A46.4,46.4,0,0,0,2.022,34.871l2.747,2.291a42.832,42.832,0,0,1,32.98-15.451c.91,0,1.819.052,2.727.109l-2.2,2.2L40.8,26.552l6.629-6.629Z" transform="translate(0 8.114)" fill="#aab83e"/>
  </g>
</svg>
