<svg xmlns="http://www.w3.org/2000/svg" width="66.316" height="65" viewBox="0 0 66.316 65">
  <g id="engineering" transform="translate(-2.022 -3)">
    <path id="Path_190" data-name="Path 190" d="M40.865,47.007A16.744,16.744,0,0,1,40,50.239l3.509,3.179a21.155,21.155,0,0,1-1.7,2.965l-4.505-1.452a16.857,16.857,0,0,1-2.375,2.374l1.452,4.505a21.267,21.267,0,0,1-2.965,1.7L30.238,60a16.723,16.723,0,0,1-3.232.864l-1,4.635c-.566.045-1.134.086-1.712.086s-1.146-.041-1.714-.086l-1-4.635A16.744,16.744,0,0,1,18.347,60L15.167,63.51a21.156,21.156,0,0,1-2.965-1.7l1.452-4.505a16.909,16.909,0,0,1-2.374-2.374L6.776,56.384a21.267,21.267,0,0,1-1.7-2.965l3.509-3.179a16.722,16.722,0,0,1-.864-3.232l-4.635-1C3.041,45.44,3,44.871,3,44.293s.041-1.146.086-1.714l4.635-1a16.744,16.744,0,0,1,.864-3.232L5.077,35.167a21.156,21.156,0,0,1,1.7-2.965l4.505,1.452a16.858,16.858,0,0,1,2.375-2.374L12.2,26.776a21.267,21.267,0,0,1,2.965-1.7l3.179,3.509a16.722,16.722,0,0,1,3.232-.864l1-4.635c.566-.045,1.134-.086,1.712-.086s1.146.041,1.714.086l1,4.635a16.744,16.744,0,0,1,3.232.864l3.179-3.509a21.155,21.155,0,0,1,2.965,1.7l-1.452,4.505a16.857,16.857,0,0,1,2.374,2.375L41.811,32.2a21.267,21.267,0,0,1,1.7,2.965L40,38.348a16.723,16.723,0,0,1,.864,3.232l4.635,1c.045.566.086,1.134.086,1.712s-.041,1.146-.086,1.714ZM24.293,33.086A11.207,11.207,0,1,0,35.5,44.293,11.207,11.207,0,0,0,24.293,33.086Z" transform="translate(0.118 2.414)" fill="#aab83e"/>
    <path id="Path_191" data-name="Path 191" d="M52.911,17.911a8.982,8.982,0,0,1-.685,1.659L54,22.961a12.385,12.385,0,0,1-2.034,2.034l-3.391-1.77a8.83,8.83,0,0,1-1.659.685l-1.148,3.653a12.178,12.178,0,0,1-1.437.092,12.388,12.388,0,0,1-1.436-.091l-1.148-3.653a8.906,8.906,0,0,1-1.659-.685L36.695,25a12.385,12.385,0,0,1-2.034-2.034l1.77-3.391a8.83,8.83,0,0,1-.685-1.659l-3.653-1.148A12.178,12.178,0,0,1,32,15.328a12.389,12.389,0,0,1,.091-1.436l3.653-1.148a8.9,8.9,0,0,1,.685-1.659l-1.77-3.391a12.384,12.384,0,0,1,2.034-2.034l3.391,1.77a8.83,8.83,0,0,1,1.659-.685l1.148-3.653A12.178,12.178,0,0,1,44.328,3a12.388,12.388,0,0,1,1.436.091l1.148,3.653a8.9,8.9,0,0,1,1.659.685l3.391-1.77a12.384,12.384,0,0,1,2.034,2.034l-1.77,3.391a8.831,8.831,0,0,1,.685,1.659l3.653,1.148a12.18,12.18,0,0,1,.092,1.437,12.389,12.389,0,0,1-.091,1.436Zm-8.583-7.066a4.483,4.483,0,1,0,4.483,4.483A4.483,4.483,0,0,0,44.328,10.845Z" transform="translate(3.618)" fill="#aab83e"/>
    <path id="Path_192" data-name="Path 192" d="M60.639,40.183a7.8,7.8,0,0,1-.727,1.762l1.115,2.347a10.165,10.165,0,0,1-1.735,1.735l-2.347-1.115a7.779,7.779,0,0,1-1.762.727l-.872,2.452a9.211,9.211,0,0,1-2.45,0l-.872-2.452a7.8,7.8,0,0,1-1.762-.727l-2.347,1.115a10.165,10.165,0,0,1-1.735-1.735l1.115-2.347a7.791,7.791,0,0,1-.727-1.761l-2.452-.872a9.219,9.219,0,0,1,0-2.451l2.452-.872a7.77,7.77,0,0,1,.727-1.761l-1.115-2.347a10.165,10.165,0,0,1,1.735-1.735l2.347,1.115a7.779,7.779,0,0,1,1.762-.727l.872-2.452A9.818,9.818,0,0,1,53.086,28a10.037,10.037,0,0,1,1.225.082l.872,2.452a7.8,7.8,0,0,1,1.762.727l2.347-1.115a10.165,10.165,0,0,1,1.735,1.735l-1.115,2.347a7.779,7.779,0,0,1,.727,1.762l2.452.872a9.21,9.21,0,0,1,0,2.45Zm-7.552-5.459a3.362,3.362,0,1,0,3.362,3.362A3.362,3.362,0,0,0,53.086,34.724Z" transform="translate(4.946 3.017)" fill="#aab83e"/>
    <path id="Path_193" data-name="Path 193" d="M62.062,5.164l-6.7-1.34-1.34,6.7,2.2.44.6-3.017a16.816,16.816,0,0,1,1.66,7.279,16.631,16.631,0,0,1-3.687,10.506l1.749,1.4A19.067,19.067,0,0,0,58.754,6.788l2.869.574Z" transform="translate(6.276 0.099)" fill="#aab83e"/>
    <path id="Path_194" data-name="Path 194" d="M26.324,13.293,24.74,14.878,26.263,16.4c-.616-.039-1.234-.074-1.851-.074A29.079,29.079,0,0,0,2.022,26.815l1.721,1.436a26.842,26.842,0,0,1,20.668-9.683c.57,0,1.14.032,1.709.068L24.74,20.017,26.324,21.6l4.154-4.154Z" transform="translate(0 1.242)" fill="#aab83e"/>
  </g>
</svg>
