<svg id="runer-silhouette-running-fast" xmlns="http://www.w3.org/2000/svg" width="123.615" height="85" viewBox="0 0 123.615 85">
  <g id="_x33_6_24_" transform="translate(0 0)">
    <g id="Group_256" data-name="Group 256" transform="translate(0 0)">
      <path id="Path_131" data-name="Path 131" d="M145.117,98.828h38.141a1.815,1.815,0,0,0,0-3.629H145.117a1.815,1.815,0,1,0,0,3.629Z" transform="translate(-106.988 -90.382)" fill="#aab83e"/>
      <path id="Path_132" data-name="Path 132" d="M10.507,168.845H48.647a1.815,1.815,0,1,0,0-3.629H10.507a1.815,1.815,0,1,0,0,3.629Z" transform="translate(-6.489 -142.656)" fill="#aab83e"/>
      <path id="Path_133" data-name="Path 133" d="M56.258,247.868a1.815,1.815,0,0,0,1.815,1.815H96.213a1.815,1.815,0,1,0,0-3.629H58.073A1.814,1.814,0,0,0,56.258,247.868Z" transform="translate(-42.002 -203.009)" fill="#aab83e"/>
      <path id="Path_134" data-name="Path 134" d="M36.084,336.44H1.815a1.815,1.815,0,1,0,0,3.629h34.27a1.815,1.815,0,1,0,0-3.629Z" transform="translate(0 -270.491)" fill="#aab83e"/>
      <path id="Path_135" data-name="Path 135" d="M356.523,96.014A9.912,9.912,0,1,0,346.61,86.1,9.912,9.912,0,0,0,356.523,96.014Z" transform="translate(-258.776 -76.191)" fill="#aab83e"/>
      <path id="Path_136" data-name="Path 136" d="M230.152,136.4c-5.691,7.972-13.312,8.9-21.513,4.027-.558-.331-3.035-1.7-3.583-2.021-13.193-7.832-26.37-4.761-35.207,7.615-3.755,5.264,4.93,10.253,8.643,5.05,4.566-6.394,10.372-8.244,16.721-6.219-3.251,5.643-6.094,11.253-10.1,19.222s-12.87,14.333-21.381,9.356c-6.141-3.59-11.68,5.233-5.557,8.811,11.62,6.791,25.244,2.621,32.2-6.207a5.451,5.451,0,0,0,.776.343c5.682,1.98,13.13,7.25,15.4,9.118s6.167,11.383,8.482,16.164c2.808,5.8,11.877,1.576,9.059-4.25-2.624-5.424-7.029-16.251-10.464-18.99a86.194,86.194,0,0,0-12.644-8.6q4.605-8.92,9.632-17.61c10.726,3.286,20.922-.585,28.183-10.756C242.551,136.191,233.868,131.2,230.152,136.4Z" transform="translate(-116.101 -119.435)" fill="#aab83e"/>
    </g>
  </g>
</svg>
