<svg id="lamp" xmlns="http://www.w3.org/2000/svg" width="93" height="93" viewBox="0 0 93 93">
  <path id="Path_117" data-name="Path 117" d="M14.156,13.4A2.907,2.907,0,0,1,11.25,10.49V2.906a2.906,2.906,0,1,1,5.812,0V10.49A2.907,2.907,0,0,1,14.156,13.4Z" transform="translate(32.344)" fill="#aab83e"/>
  <path id="Path_118" data-name="Path 118" d="M20.727,14.473a2.908,2.908,0,0,1-2.054-4.964l5.363-5.363a2.907,2.907,0,1,1,4.111,4.111L22.784,13.62A2.915,2.915,0,0,1,20.727,14.473Z" transform="translate(51.236 9.471)" fill="#aab83e"/>
  <path id="Path_119" data-name="Path 119" d="M31.033,17.062H23.449a2.906,2.906,0,0,1,0-5.812h7.583a2.906,2.906,0,0,1,0,5.812Z" transform="translate(59.061 32.344)" fill="#aab83e"/>
  <path id="Path_120" data-name="Path 120" d="M26.09,29a2.883,2.883,0,0,1-2.054-.852l-5.363-5.363a2.907,2.907,0,0,1,4.111-4.111l5.363,5.363A2.908,2.908,0,0,1,26.09,29Z" transform="translate(51.236 51.233)" fill="#aab83e"/>
  <path id="Path_121" data-name="Path 121" d="M6.2,29a2.908,2.908,0,0,1-2.054-4.964L9.51,18.672a2.907,2.907,0,0,1,4.111,4.111L8.258,28.146A2.9,2.9,0,0,1,6.2,29Z" transform="translate(9.474 51.233)" fill="#aab83e"/>
  <path id="Path_122" data-name="Path 122" d="M10.49,17.062H2.906a2.906,2.906,0,1,1,0-5.812H10.49a2.906,2.906,0,1,1,0,5.812Z" transform="translate(0 32.344)" fill="#aab83e"/>
  <path id="Path_123" data-name="Path 123" d="M11.564,14.473A2.883,2.883,0,0,1,9.51,13.62L4.147,8.257A2.907,2.907,0,0,1,8.258,4.146l5.363,5.363a2.908,2.908,0,0,1-2.058,4.964Z" transform="translate(9.474 9.471)" fill="#aab83e"/>
  <path id="Path_124" data-name="Path 124" d="M32.25,21v4.844a6.814,6.814,0,0,1-6.781,6.781H15.781C12.526,32.625,9,30.145,9,24.72V21Z" transform="translate(25.875 60.375)" fill="#aab83e"/>
  <path id="Path_125" data-name="Path 125" d="M49.217,11.041a27.128,27.128,0,1,0-33.4,42.741,11.7,11.7,0,0,1,4.418,7.4v.039a.659.659,0,0,1,.271-.039h23.25a.349.349,0,0,1,.194.039v-.039a12.925,12.925,0,0,1,4.96-7.75,27.14,27.14,0,0,0,.31-42.393ZM46.66,34.059a2.927,2.927,0,0,1-2.906-2.906A10.65,10.65,0,0,0,33.1,20.5a2.906,2.906,0,1,1,0-5.812A16.5,16.5,0,0,1,49.566,31.152,2.927,2.927,0,0,1,46.66,34.059Z" transform="translate(14.371 14.379)" fill="#aab83e"/>
  <path id="Path_126" data-name="Path 126" d="M8.93,19.5H9.2a.659.659,0,0,0-.271.039Z" transform="translate(25.674 56.062)" fill="#aab83e"/>
  <path id="Path_127" data-name="Path 127" d="M15.194,19.5v.039A.349.349,0,0,0,15,19.5Z" transform="translate(43.125 56.062)" fill="#aab83e"/>
</svg>
