<svg xmlns="http://www.w3.org/2000/svg" width="93.913" height="40.828" viewBox="0 0 93.913 40.828">
  <path id="Logo_Alex_Final_1" data-name="Logo Alex Final 1" d="M99.348,31.529V63.6H94.964V55.1H87.548a13.572,13.572,0,0,0-2.571.054l-10.5,17.186H69.821l.054-.054,10.69-17.158V55.1H78.509v-.027l1.651-3.139h2.409l12.72-20.406Zm2.165,0h2.95a3.506,3.506,0,0,1,1.11.054l9.473,18.4.054-.027L122.244,36.1l1.786-3.464c.183-.312.291-.9.6-1.083l3.978-.027V63.6H124.22q-.014-11.663-.027-23.329v.054l-9.121,18.052h-.027v-.054l-9.121-18.052H105.9q-.013,11.663-.027,23.329h-4.357V31.529Zm41.516,5.9h3.681l-10.826,20.3h-3.708ZM94.964,51.936V38.755l-.054.027L86.926,51.936ZM72.582,41.272q.014,1.881.027,3.762l-4.953,2.49v.027L72.609,50.1V53.8l-8.688-4.872V46.09Zm76.565,0,8.687,4.844v2.842L149.146,53.8V50.068l4.953-2.544V47.5l-4.953-2.49V41.272Z" transform="translate(-63.921 -31.514)" fill="#aab83e"/>
</svg>
