<svg xmlns="http://www.w3.org/2000/svg" width="40" height="40" viewBox="0 0 40 40">
  <g id="phone-call" transform="translate(0.001)">
    <g id="Group_293" data-name="Group 293" transform="translate(25.155)">
      <g id="Group_292" data-name="Group 292">
        <path id="Path_176" data-name="Path 176" d="M323.172,0a1.172,1.172,0,1,0,0,2.344A11.328,11.328,0,0,1,334.5,13.672a1.172,1.172,0,0,0,1.172,1.172h0a1.172,1.172,0,0,0,1.172-1.172A13.672,13.672,0,0,0,323.172,0Z" transform="translate(-322)" fill="#b9ab9d"/>
        <path id="Path_177" data-name="Path 177" d="M323.172,60a1.172,1.172,0,0,0,0,2.344,6.641,6.641,0,0,1,6.641,6.641,1.172,1.172,0,0,0,1.172,1.172h0a1.172,1.172,0,0,0,1.172-1.172A8.984,8.984,0,0,0,323.172,60Z" transform="translate(-322 -55.312)" fill="#b9ab9d"/>
        <path id="Path_178" data-name="Path 178" d="M323.172,120a1.172,1.172,0,0,0,0,2.344,1.953,1.953,0,0,1,1.953,1.953,1.172,1.172,0,0,0,2.344,0A4.3,4.3,0,0,0,323.172,120Z" transform="translate(-322 -110.625)" fill="#b9ab9d"/>
      </g>
    </g>
    <g id="Group_294" data-name="Group 294" transform="translate(-0.001 0.157)">
      <path id="Path_179" data-name="Path 179" d="M78.978,13.807l.829-.829a3.52,3.52,0,0,0,0-4.972L74.834,3.035a3.52,3.52,0,0,0-4.972,0l-.829.829Z" transform="translate(-63.641 -2.007)" fill="#b9ab9d"/>
      <path id="Path_180" data-name="Path 180" d="M368.891,303.721l.829-.829a3.52,3.52,0,0,0,0-4.972l-4.972-4.972a3.52,3.52,0,0,0-4.972,0l-.829.829Z" transform="translate(-330.904 -269.271)" fill="#b9ab9d"/>
      <path id="Path_181" data-name="Path 181" d="M26.385,69.637l-.974.974A1.161,1.161,0,0,1,24,70.8,33.3,33.3,0,0,1,12.511,59.312,1.161,1.161,0,0,1,12.7,57.9l.974-.974L3.735,46.987,2.088,48.634A7.073,7.073,0,0,0,.067,52.7,7.174,7.174,0,0,0,.9,57.169a62.233,62.233,0,0,0,10.848,14.4,62.227,62.227,0,0,0,14.4,10.848,7.175,7.175,0,0,0,4.465.83,7.073,7.073,0,0,0,4.07-2.021l1.647-1.647Z" transform="translate(0.001 -43.473)" fill="#b9ab9d"/>
    </g>
  </g>
</svg>
