<svg id="up-arrow" xmlns="http://www.w3.org/2000/svg" width="60" height="60" viewBox="0 0 60 60">
  <g id="Group_305" data-name="Group 305">
    <g id="Group_304" data-name="Group 304">
      <path id="Path_185" data-name="Path 185" d="M30,0A30,30,0,1,0,60,30,30.033,30.033,0,0,0,30,0Zm0,55.352A25.352,25.352,0,1,1,55.352,30,25.382,25.382,0,0,1,30,55.352Z" fill="#b9ab9d"/>
    </g>
  </g>
  <g id="Group_307" data-name="Group 307" transform="translate(16.195 20.912)">
    <g id="Group_306" data-name="Group 306">
      <path id="Path_186" data-name="Path 186" d="M165.271,190.742l-11.619-11.619a2.323,2.323,0,0,0-3.277,0l-11.619,11.619a2.324,2.324,0,0,0,3.277,3.276L152,184.049l9.992,9.969a2.317,2.317,0,1,0,3.277-3.277Z" transform="translate(-138.197 -178.446)" fill="#b9ab9d"/>
    </g>
  </g>
</svg>
